<svg width="46" height="46" viewBox="0 0 46 46" fill="none" xmlns="http://www.w3.org/2000/svg">
<path d="M28.9736 19.3065C31.0972 19.3065 32.8186 17.5851 32.8186 15.4615C32.8186 13.338 31.0972 11.6165 28.9736 11.6165C26.8501 11.6165 25.1287 13.338 25.1287 15.4615C25.1287 17.5851 26.8501 19.3065 28.9736 19.3065Z" fill="#BD1218"/>
<path d="M8.73812 16.6373C12.2018 16.6754 17.3369 15.9954 21.112 13.3325C21.112 13.3325 20.3748 18.7028 23.9656 21.4292C26.7492 23.5456 29.9968 24.4099 34.3248 22.1919C34.3248 22.1919 32.5898 41.8808 10.6002 35.6779C12.2526 37.235 14.2037 38.4807 16.3455 39.3068C20.9912 41.1054 26.0438 40.8893 30.5052 38.7349C34.7697 36.6694 37.9791 33.0659 39.5298 28.5854C42.7393 19.3447 37.8329 9.21424 28.5923 5.99843C23.8067 4.33968 18.5889 4.82269 14.2419 7.19959C12.6594 8.06392 11.2485 9.22059 9.99648 10.5234L9.72955 10.8031L4.47368 9.36041L5.82737 7.82241C9.50076 3.6533 14.5342 0.831521 20.0507 0.164208C23.4317 -0.242534 26.9144 0.100656 30.2383 1.25733C42.6948 5.58533 49.0184 19.7133 43.5591 32.0236C41.5127 36.644 37.9346 40.4762 33.4732 42.8468C30.1112 44.6326 26.4632 45.5287 22.7898 45.5351C17.4831 45.5351 12.1382 43.6603 7.57509 39.8534C0.507932 33.1485 -1.6656 23.7553 1.27058 15.2963C3.67926 16.1289 6.19597 16.5992 8.74447 16.6309L8.73812 16.6373Z" fill="#BD1218"/>
</svg>
